<mxfile host="app.diagrams.net" modified="2023-12-17T15:58:19.903Z" agent="Mozilla/5.0 (Macintosh; Intel Mac OS X 10_15_7) AppleWebKit/537.36 (KHTML, like Gecko) Chrome/120.0.0.0 Safari/537.36" etag="Hj-Nj061svIE-kf-Ui52" version="22.1.11" type="device">
  <diagram name="Page-1" id="A3F4oGTbfbm-flCCHoiR">
    <mxGraphModel dx="1358" dy="837" grid="1" gridSize="10" guides="1" tooltips="1" connect="1" arrows="1" fold="1" page="0" pageScale="1" pageWidth="827" pageHeight="1169" math="0" shadow="0">
      <root>
        <mxCell id="0" />
        <mxCell id="1" parent="0" />
        <mxCell id="nj6fnqwOzav8n3X69G2g-1" value="" style="group;rounded=0;" vertex="1" connectable="0" parent="1">
          <mxGeometry x="39" y="40" width="250" height="100" as="geometry" />
        </mxCell>
        <mxCell id="nj6fnqwOzav8n3X69G2g-2" value="" style="rounded=0;whiteSpace=wrap;html=1;" vertex="1" parent="nj6fnqwOzav8n3X69G2g-1">
          <mxGeometry width="250" height="100" as="geometry" />
        </mxCell>
        <mxCell id="nj6fnqwOzav8n3X69G2g-3" value="Effect" style="text;html=1;strokeColor=none;fillColor=none;align=center;verticalAlign=middle;whiteSpace=wrap;rounded=0;fontSize=16;" vertex="1" parent="nj6fnqwOzav8n3X69G2g-1">
          <mxGeometry x="70" y="10" width="110" height="30" as="geometry" />
        </mxCell>
        <mxCell id="nj6fnqwOzav8n3X69G2g-4" value="&lt;font color=&quot;#1a1a1a&quot;&gt;State, AsyncState&lt;/font&gt;" style="text;html=1;strokeColor=#666666;fillColor=none;align=center;verticalAlign=middle;whiteSpace=wrap;rounded=0;dashed=1;glass=0;spacingTop=-10;spacing=0;spacingLeft=10;spacingBottom=-9;labelBorderColor=none;perimeterSpacing=0;fontSize=14;" vertex="1" parent="nj6fnqwOzav8n3X69G2g-1">
          <mxGeometry x="25" y="50" width="200" height="30" as="geometry" />
        </mxCell>
        <mxCell id="nj6fnqwOzav8n3X69G2g-17" value="" style="edgeStyle=orthogonalEdgeStyle;rounded=0;orthogonalLoop=1;jettySize=auto;html=1;" edge="1" parent="1" source="nj6fnqwOzav8n3X69G2g-2" target="nj6fnqwOzav8n3X69G2g-11">
          <mxGeometry relative="1" as="geometry">
            <mxPoint x="195" y="200" as="targetPoint" />
            <Array as="points">
              <mxPoint x="400" y="90" />
            </Array>
          </mxGeometry>
        </mxCell>
        <mxCell id="nj6fnqwOzav8n3X69G2g-18" value="All dependencies fulfilled" style="edgeLabel;html=1;align=center;verticalAlign=middle;resizable=0;points=[];fontColor=#FFB570;fontSize=12;" vertex="1" connectable="0" parent="nj6fnqwOzav8n3X69G2g-17">
          <mxGeometry x="-0.457" y="-2" relative="1" as="geometry">
            <mxPoint x="27" y="-15" as="offset" />
          </mxGeometry>
        </mxCell>
        <mxCell id="nj6fnqwOzav8n3X69G2g-21" style="edgeStyle=orthogonalEdgeStyle;rounded=0;orthogonalLoop=1;jettySize=auto;html=1;" edge="1" parent="1" source="nj6fnqwOzav8n3X69G2g-11" target="nj6fnqwOzav8n3X69G2g-20">
          <mxGeometry relative="1" as="geometry">
            <mxPoint x="460" y="160" as="targetPoint" />
          </mxGeometry>
        </mxCell>
        <mxCell id="nj6fnqwOzav8n3X69G2g-11" value="" style="ellipse;whiteSpace=wrap;html=1;aspect=fixed;" vertex="1" parent="1">
          <mxGeometry x="390" y="160" width="20" height="20" as="geometry" />
        </mxCell>
        <mxCell id="nj6fnqwOzav8n3X69G2g-25" value="" style="edgeStyle=orthogonalEdgeStyle;rounded=0;orthogonalLoop=1;jettySize=auto;html=1;" edge="1" parent="1" source="nj6fnqwOzav8n3X69G2g-20" target="nj6fnqwOzav8n3X69G2g-24">
          <mxGeometry relative="1" as="geometry" />
        </mxCell>
        <mxCell id="nj6fnqwOzav8n3X69G2g-26" value="Any dependency cahnged" style="edgeLabel;html=1;align=center;verticalAlign=middle;resizable=0;points=[];fontColor=#FFB570;fontSize=12;" vertex="1" connectable="0" parent="nj6fnqwOzav8n3X69G2g-25">
          <mxGeometry x="-0.2575" relative="1" as="geometry">
            <mxPoint y="4" as="offset" />
          </mxGeometry>
        </mxCell>
        <mxCell id="nj6fnqwOzav8n3X69G2g-20" value="Run callback" style="shape=process;whiteSpace=wrap;html=1;backgroundOutline=1;" vertex="1" parent="1">
          <mxGeometry x="340" y="230" width="120" height="30" as="geometry" />
        </mxCell>
        <mxCell id="nj6fnqwOzav8n3X69G2g-13" value="" style="endArrow=none;dashed=1;html=1;dashPattern=1 3;strokeWidth=2;rounded=0;fillColor=#1ba1e2;strokeColor=#006EAF;" edge="1" parent="1" target="nj6fnqwOzav8n3X69G2g-15">
          <mxGeometry width="50" height="50" relative="1" as="geometry">
            <mxPoint x="400" y="204" as="sourcePoint" />
            <mxPoint x="460.4085349986989" y="186.20000000000005" as="targetPoint" />
          </mxGeometry>
        </mxCell>
        <mxCell id="nj6fnqwOzav8n3X69G2g-14" value="started" style="edgeLabel;html=1;align=center;verticalAlign=middle;resizable=0;points=[];fontSize=12;fontColor=#006EAF;rotation=0;" vertex="1" connectable="0" parent="nj6fnqwOzav8n3X69G2g-13">
          <mxGeometry x="0.2113" relative="1" as="geometry">
            <mxPoint x="-6" y="-9" as="offset" />
          </mxGeometry>
        </mxCell>
        <mxCell id="nj6fnqwOzav8n3X69G2g-15" value="" style="sketch=0;outlineConnect=0;fontColor=#ffffff;fillColor=#006EAF;strokeColor=#006EAF;dashed=0;verticalLabelPosition=bottom;verticalAlign=top;align=center;html=1;fontSize=12;fontStyle=0;aspect=fixed;pointerEvents=1;shape=mxgraph.aws4.event;" vertex="1" parent="1">
          <mxGeometry x="470.00000000000006" y="191" width="26" height="26" as="geometry" />
        </mxCell>
        <mxCell id="nj6fnqwOzav8n3X69G2g-27" style="edgeStyle=orthogonalEdgeStyle;rounded=0;orthogonalLoop=1;jettySize=auto;html=1;dashed=1;" edge="1" parent="1" source="nj6fnqwOzav8n3X69G2g-24" target="nj6fnqwOzav8n3X69G2g-11">
          <mxGeometry relative="1" as="geometry">
            <Array as="points">
              <mxPoint x="240" y="350" />
              <mxPoint x="240" y="170" />
            </Array>
          </mxGeometry>
        </mxCell>
        <mxCell id="nj6fnqwOzav8n3X69G2g-28" value="No cleanup callback" style="edgeLabel;html=1;align=center;verticalAlign=middle;resizable=0;points=[];fontSize=12;" vertex="1" connectable="0" parent="nj6fnqwOzav8n3X69G2g-27">
          <mxGeometry x="-0.7263" relative="1" as="geometry">
            <mxPoint x="9" y="-11" as="offset" />
          </mxGeometry>
        </mxCell>
        <mxCell id="nj6fnqwOzav8n3X69G2g-30" style="edgeStyle=orthogonalEdgeStyle;rounded=0;orthogonalLoop=1;jettySize=auto;html=1;" edge="1" parent="1" source="nj6fnqwOzav8n3X69G2g-24" target="nj6fnqwOzav8n3X69G2g-29">
          <mxGeometry relative="1" as="geometry" />
        </mxCell>
        <mxCell id="nj6fnqwOzav8n3X69G2g-31" value="Has cleanup callback" style="edgeLabel;html=1;align=center;verticalAlign=middle;resizable=0;points=[];fontSize=12;" vertex="1" connectable="0" parent="nj6fnqwOzav8n3X69G2g-30">
          <mxGeometry x="-0.5044" y="1" relative="1" as="geometry">
            <mxPoint x="30" y="-9" as="offset" />
          </mxGeometry>
        </mxCell>
        <mxCell id="nj6fnqwOzav8n3X69G2g-24" value="" style="rhombus;whiteSpace=wrap;html=1;" vertex="1" parent="1">
          <mxGeometry x="380" y="330" width="40" height="40" as="geometry" />
        </mxCell>
        <mxCell id="nj6fnqwOzav8n3X69G2g-32" style="edgeStyle=orthogonalEdgeStyle;rounded=0;orthogonalLoop=1;jettySize=auto;html=1;dashed=1;" edge="1" parent="1" source="nj6fnqwOzav8n3X69G2g-29" target="nj6fnqwOzav8n3X69G2g-11">
          <mxGeometry relative="1" as="geometry">
            <Array as="points">
              <mxPoint x="486" y="430" />
              <mxPoint x="610" y="430" />
              <mxPoint x="610" y="170" />
            </Array>
          </mxGeometry>
        </mxCell>
        <mxCell id="nj6fnqwOzav8n3X69G2g-29" value="Cleanup" style="shape=process;whiteSpace=wrap;html=1;backgroundOutline=1;" vertex="1" parent="1">
          <mxGeometry x="426" y="380" width="120" height="30" as="geometry" />
        </mxCell>
        <mxCell id="nj6fnqwOzav8n3X69G2g-33" value="" style="endArrow=none;dashed=1;html=1;dashPattern=1 3;strokeWidth=2;rounded=0;fillColor=#1ba1e2;strokeColor=#006EAF;" edge="1" target="nj6fnqwOzav8n3X69G2g-35" parent="1">
          <mxGeometry width="50" height="50" relative="1" as="geometry">
            <mxPoint x="610" y="304" as="sourcePoint" />
            <mxPoint x="530.4085349986989" y="286.20000000000005" as="targetPoint" />
          </mxGeometry>
        </mxCell>
        <mxCell id="nj6fnqwOzav8n3X69G2g-34" value="cleared" style="edgeLabel;html=1;align=center;verticalAlign=middle;resizable=0;points=[];fontSize=12;fontColor=#006EAF;rotation=0;" vertex="1" connectable="0" parent="nj6fnqwOzav8n3X69G2g-33">
          <mxGeometry x="0.2113" relative="1" as="geometry">
            <mxPoint x="9" y="-10" as="offset" />
          </mxGeometry>
        </mxCell>
        <mxCell id="nj6fnqwOzav8n3X69G2g-35" value="" style="sketch=0;outlineConnect=0;fontColor=#ffffff;fillColor=#006EAF;strokeColor=#006EAF;dashed=0;verticalLabelPosition=bottom;verticalAlign=top;align=center;html=1;fontSize=12;fontStyle=0;aspect=fixed;pointerEvents=1;shape=mxgraph.aws4.event;" vertex="1" parent="1">
          <mxGeometry x="520" y="291" width="26" height="26" as="geometry" />
        </mxCell>
      </root>
    </mxGraphModel>
  </diagram>
</mxfile>
